<?xml version="1.0" standalone="no"?>
<!DOCTYPE svg PUBLIC "-//W3C//DTD SVG 20010904//EN"
 "http://www.w3.org/TR/2001/REC-SVG-20010904/DTD/svg10.dtd">
<svg version="1.0" xmlns="http://www.w3.org/2000/svg"
 width="2500.000000pt" height="2500.000000pt" viewBox="0 0 2500.000000 2500.000000"
 preserveAspectRatio="xMidYMid meet">
<metadata>
Created by potrace 1.11, written by Peter Selinger 2001-2013
</metadata>
<g transform="translate(0.000000,2500.000000) scale(0.100000,-0.100000)"
fill="#000000" stroke="none">
<path d="M6533 22872 c-5522 -1968 -5773 -2058 -5773 -2081 0 -51 1761 -15266
1768 -15272 13 -12 9786 -5434 9792 -5432 3 1 1229 678 2725 1506 1496 827
3730 2063 4965 2746 2154 1191 2245 1242 2253 1274 4 17 348 2737 763 6042
415 3306 845 6733 956 7617 111 884 199 1610 195 1614 -8 8 -11848 4044
-11862 4043 -5 0 -2608 -926 -5782 -2057z m9580 -8879 c2077 -4420 3775 -8038
3774 -8039 -5 -4 -2567 45 -2575 49 -4 3 -363 827 -797 1831 l-790 1826 -3229
-2 -3230 -3 -722 -1805 -722 -1805 -48 -2 c-117 -6 -2602 -44 -2626 -41 -27 3
-21 17 3574 8016 1981 4406 3604 8012 3608 8012 4 0 1706 -3617 3783 -8037z"/>
<path d="M12338 16863 c-3 -10 -481 -1149 -1063 -2531 -581 -1382 -1055 -2515
-1053 -2518 3 -2 1028 -3 2280 -2 l2274 3 -1210 2532 c-666 1393 -1214 2533
-1217 2533 -4 0 -9 -8 -11 -17z"/>
</g>
</svg>
